<svg width="70" height="70" viewBox="0 0 70 70" fill="none" xmlns="http://www.w3.org/2000/svg">
<rect width="70" height="70" rx="6" fill="#EEE8FD"/>
<path d="M51.0612 26.4388L40.5613 15.9388C40.4218 15.7995 40.2564 15.6891 40.0743 15.6138C39.8922 15.5385 39.697 15.4998 39.5 15.5H21.5C20.7044 15.5 19.9413 15.8161 19.3787 16.3787C18.8161 16.9413 18.5 17.7044 18.5 18.5V51.5C18.5 52.2957 18.8161 53.0587 19.3787 53.6213C19.9413 54.1839 20.7044 54.5 21.5 54.5H48.5C49.2956 54.5 50.0587 54.1839 50.6213 53.6213C51.1839 53.0587 51.5 52.2957 51.5 51.5V27.5C51.5002 27.303 51.4615 27.1078 51.3862 26.9257C51.3109 26.7436 51.2005 26.5782 51.0612 26.4388ZM41 44H29C28.6022 44 28.2206 43.842 27.9393 43.5607C27.658 43.2794 27.5 42.8978 27.5 42.5C27.5 42.1022 27.658 41.7206 27.9393 41.4393C28.2206 41.158 28.6022 41 29 41H41C41.3978 41 41.7794 41.158 42.0607 41.4393C42.342 41.7206 42.5 42.1022 42.5 42.5C42.5 42.8978 42.342 43.2794 42.0607 43.5607C41.7794 43.842 41.3978 44 41 44ZM41 38H29C28.6022 38 28.2206 37.842 27.9393 37.5607C27.658 37.2794 27.5 36.8978 27.5 36.5C27.5 36.1022 27.658 35.7206 27.9393 35.4393C28.2206 35.158 28.6022 35 29 35H41C41.3978 35 41.7794 35.158 42.0607 35.4393C42.342 35.7206 42.5 36.1022 42.5 36.5C42.5 36.8978 42.342 37.2794 42.0607 37.5607C41.7794 37.842 41.3978 38 41 38ZM39.5 27.5V19.25L47.75 27.5H39.5Z" fill="#4F27AE"/>
<path d="M50.4237 12.5752L47.2932 11.4216C47.2069 11.3898 47.1324 11.3322 47.0798 11.2567C47.0272 11.1813 46.999 11.0915 46.999 10.9994C46.999 10.9074 47.0272 10.8176 47.0798 10.7421C47.1324 10.6666 47.2069 10.6091 47.2932 10.5772L50.4237 9.42369L51.5772 6.29323C51.6091 6.20691 51.6666 6.13243 51.7421 6.07983C51.8176 6.02723 51.9074 5.99902 51.9994 5.99902C52.0915 5.99902 52.1813 6.02723 52.2567 6.07983C52.3322 6.13243 52.3898 6.20691 52.4216 6.29323L53.5752 9.42369L56.7056 10.5772C56.792 10.6091 56.8664 10.6666 56.919 10.7421C56.9717 10.8176 56.9999 10.9074 56.9999 10.9994C56.9999 11.0915 56.9717 11.1813 56.919 11.2567C56.8664 11.3322 56.792 11.3898 56.7056 11.4216L53.5752 12.5752L52.4216 15.7056C52.3898 15.792 52.3322 15.8664 52.2567 15.919C52.1813 15.9717 52.0915 15.9999 51.9994 15.9999C51.9074 15.9999 51.8176 15.9717 51.7421 15.919C51.6666 15.8664 51.6091 15.792 51.5772 15.7056L50.4237 12.5752Z" stroke="#A899DB" stroke-width="1.25005" stroke-linecap="round" stroke-linejoin="round"/>
<path d="M9.39729 15.6033L7.20595 14.7959C7.14552 14.7736 7.09339 14.7333 7.05656 14.6804C7.01974 14.6276 7 14.5647 7 14.5003C7 14.4359 7.01974 14.373 7.05656 14.3202C7.09339 14.2674 7.14552 14.2271 7.20595 14.2048L9.39729 13.3973L10.2048 11.2059C10.2271 11.1455 10.2674 11.0934 10.3202 11.0566C10.373 11.0197 10.4359 11 10.5003 11C10.5647 11 10.6276 11.0197 10.6804 11.0566C10.7333 11.0934 10.7736 11.1455 10.7959 11.2059L11.6033 13.3973L13.7947 14.2048C13.8551 14.2271 13.9072 14.2674 13.9441 14.3202C13.9809 14.373 14.0006 14.4359 14.0006 14.5003C14.0006 14.5647 13.9809 14.6276 13.9441 14.6804C13.9072 14.7333 13.8551 14.7736 13.7947 14.7959L11.6033 15.6033L10.7959 17.7947C10.7736 17.8551 10.7333 17.9072 10.6804 17.9441C10.6276 17.9809 10.5647 18.0006 10.5003 18.0006C10.4359 18.0006 10.373 17.9809 10.3202 17.9441C10.2674 17.9072 10.2271 17.8551 10.2048 17.7947L9.39729 15.6033Z" stroke="#A899DB" stroke-width="0.875045" stroke-linecap="round" stroke-linejoin="round"/>
<path d="M46.0548 60.9458L44.1765 60.2536C44.1247 60.2345 44.08 60.2 44.0485 60.1547C44.0169 60.1094 44 60.0555 44 60.0003C44 59.9451 44.0169 59.8912 44.0485 59.8459C44.08 59.8006 44.1247 59.7661 44.1765 59.747L46.0548 59.0548L46.747 57.1765C46.7661 57.1247 46.8006 57.08 46.8459 57.0485C46.8912 57.0169 46.9451 57 47.0003 57C47.0555 57 47.1094 57.0169 47.1547 57.0485C47.2 57.08 47.2345 57.1247 47.2536 57.1765L47.9458 59.0548L49.8241 59.747C49.8759 59.7661 49.9206 59.8006 49.9521 59.8459C49.9837 59.8912 50.0006 59.9451 50.0006 60.0003C50.0006 60.0555 49.9837 60.1094 49.9521 60.1547C49.9206 60.2 49.8759 60.2345 49.8241 60.2536L47.9458 60.9458L47.2536 62.8241C47.2345 62.8759 47.2 62.9206 47.1547 62.9521C47.1094 62.9837 47.0555 63.0006 47.0003 63.0006C46.9451 63.0006 46.8912 62.9837 46.8459 62.9521C46.8006 62.9206 46.7661 62.8759 46.747 62.8241L46.0548 60.9458Z" stroke="#A899DB" stroke-width="0.750049" stroke-linecap="round" stroke-linejoin="round"/>
</svg>

