<svg width="70" height="70" viewBox="0 0 70 70" fill="none" xmlns="http://www.w3.org/2000/svg">
<rect width="70" height="70" rx="6" fill="#DFFAFC"/>
<path d="M57.5 39.5C57.5 39.8978 57.3419 40.2794 57.0606 40.5607C56.7793 40.842 56.3978 41 56 41H53V44C53 44.3978 52.8419 44.7794 52.5606 45.0607C52.2793 45.342 51.8978 45.5 51.5 45.5C51.1021 45.5 50.7206 45.342 50.4393 45.0607C50.158 44.7794 50 44.3978 50 44V41H47C46.6021 41 46.2206 40.842 45.9393 40.5607C45.658 40.2794 45.5 39.8978 45.5 39.5C45.5 39.1022 45.658 38.7206 45.9393 38.4393C46.2206 38.158 46.6021 38 47 38H50V35C50 34.6022 50.158 34.2206 50.4393 33.9393C50.7206 33.658 51.1021 33.5 51.5 33.5C51.8978 33.5 52.2793 33.658 52.5606 33.9393C52.8419 34.2206 53 34.6022 53 35V38H56C56.3978 38 56.7793 38.158 57.0606 38.4393C57.3419 38.7206 57.5 39.1022 57.5 39.5ZM21.5 24.5H24.5V27.5C24.5 27.8978 24.658 28.2794 24.9393 28.5607C25.2206 28.842 25.6021 29 26 29C26.3978 29 26.7793 28.842 27.0606 28.5607C27.3419 28.2794 27.5 27.8978 27.5 27.5V24.5H30.5C30.8978 24.5 31.2793 24.342 31.5606 24.0607C31.8419 23.7794 32 23.3978 32 23C32 22.6022 31.8419 22.2206 31.5606 21.9393C31.2793 21.658 30.8978 21.5 30.5 21.5H27.5V18.5C27.5 18.1022 27.3419 17.7206 27.0606 17.4393C26.7793 17.158 26.3978 17 26 17C25.6021 17 25.2206 17.158 24.9393 17.4393C24.658 17.7206 24.5 18.1022 24.5 18.5V21.5H21.5C21.1021 21.5 20.7206 21.658 20.4393 21.9393C20.158 22.2206 20 22.6022 20 23C20 23.3978 20.158 23.7794 20.4393 24.0607C20.7206 24.342 21.1021 24.5 21.5 24.5ZM45.5 47H44V45.5C44 45.1022 43.8419 44.7206 43.5606 44.4393C43.2793 44.158 42.8978 44 42.5 44C42.1021 44 41.7206 44.158 41.4393 44.4393C41.158 44.7206 41 45.1022 41 45.5V47H39.5C39.1021 47 38.7206 47.158 38.4393 47.4393C38.158 47.7206 38 48.1022 38 48.5C38 48.8978 38.158 49.2794 38.4393 49.5607C38.7206 49.842 39.1021 50 39.5 50H41V51.5C41 51.8978 41.158 52.2794 41.4393 52.5607C41.7206 52.842 42.1021 53 42.5 53C42.8978 53 43.2793 52.842 43.5606 52.5607C43.8419 52.2794 44 51.8978 44 51.5V50H45.5C45.8978 50 46.2793 49.842 46.5606 49.5607C46.8419 49.2794 47 48.8978 47 48.5C47 48.1022 46.8419 47.7206 46.5606 47.4393C46.2793 47.158 45.8978 47 45.5 47ZM52.1206 26L26 52.1206C25.4374 52.6828 24.6746 52.9986 23.8793 52.9986C23.084 52.9986 22.3213 52.6828 21.7587 52.1206L17.8775 48.2431C17.5988 47.9645 17.3778 47.6338 17.227 47.2698C17.0762 46.9058 16.9985 46.5156 16.9985 46.1216C16.9985 45.7275 17.0762 45.3374 17.227 44.9734C17.3778 44.6093 17.5988 44.2786 17.8775 44L44 17.8794C44.2785 17.6007 44.6093 17.3797 44.9733 17.2289C45.3373 17.0781 45.7275 17.0005 46.1215 17.0005C46.5155 17.0005 46.9057 17.0781 47.2697 17.2289C47.6338 17.3797 47.9645 17.6007 48.2431 17.8794L52.1206 21.7569C52.3992 22.0355 52.6203 22.3662 52.7711 22.7302C52.9219 23.0943 52.9995 23.4844 52.9995 23.8784C52.9995 24.2725 52.9219 24.6626 52.7711 25.0266C52.6203 25.3907 52.3992 25.7214 52.1206 26ZM50 23.8794L46.1206 20L40.1206 26L44 29.8794L50 23.8794Z" fill="#3B8BAA"/>
<path d="M57.5 39.5C57.5 39.8978 57.342 40.2794 57.0607 40.5607C56.7794 40.842 56.3978 41 56 41H53V44C53 44.3978 52.842 44.7794 52.5607 45.0607C52.2794 45.342 51.8978 45.5 51.5 45.5C51.1022 45.5 50.7206 45.342 50.4393 45.0607C50.158 44.7794 50 44.3978 50 44V41H47C46.6022 41 46.2206 40.842 45.9393 40.5607C45.658 40.2794 45.5 39.8978 45.5 39.5C45.5 39.1022 45.658 38.7206 45.9393 38.4393C46.2206 38.158 46.6022 38 47 38H50V35C50 34.6022 50.158 34.2206 50.4393 33.9393C50.7206 33.658 51.1022 33.5 51.5 33.5C51.8978 33.5 52.2794 33.658 52.5607 33.9393C52.842 34.2206 53 34.6022 53 35V38H56C56.3978 38 56.7794 38.158 57.0607 38.4393C57.342 38.7206 57.5 39.1022 57.5 39.5ZM21.5 24.5H24.5V27.5C24.5 27.8978 24.658 28.2794 24.9393 28.5607C25.2206 28.842 25.6022 29 26 29C26.3978 29 26.7794 28.842 27.0607 28.5607C27.342 28.2794 27.5 27.8978 27.5 27.5V24.5H30.5C30.8978 24.5 31.2794 24.342 31.5607 24.0607C31.842 23.7794 32 23.3978 32 23C32 22.6022 31.842 22.2206 31.5607 21.9393C31.2794 21.658 30.8978 21.5 30.5 21.5H27.5V18.5C27.5 18.1022 27.342 17.7206 27.0607 17.4393C26.7794 17.158 26.3978 17 26 17C25.6022 17 25.2206 17.158 24.9393 17.4393C24.658 17.7206 24.5 18.1022 24.5 18.5V21.5H21.5C21.1022 21.5 20.7206 21.658 20.4393 21.9393C20.158 22.2206 20 22.6022 20 23C20 23.3978 20.158 23.7794 20.4393 24.0607C20.7206 24.342 21.1022 24.5 21.5 24.5ZM45.5 47H44V45.5C44 45.1022 43.842 44.7206 43.5607 44.4393C43.2794 44.158 42.8978 44 42.5 44C42.1022 44 41.7206 44.158 41.4393 44.4393C41.158 44.7206 41 45.1022 41 45.5V47H39.5C39.1022 47 38.7206 47.158 38.4393 47.4393C38.158 47.7206 38 48.1022 38 48.5C38 48.8978 38.158 49.2794 38.4393 49.5607C38.7206 49.842 39.1022 50 39.5 50H41V51.5C41 51.8978 41.158 52.2794 41.4393 52.5607C41.7206 52.842 42.1022 53 42.5 53C42.8978 53 43.2794 52.842 43.5607 52.5607C43.842 52.2794 44 51.8978 44 51.5V50H45.5C45.8978 50 46.2794 49.842 46.5607 49.5607C46.842 49.2794 47 48.8978 47 48.5C47 48.1022 46.842 47.7206 46.5607 47.4393C46.2794 47.158 45.8978 47 45.5 47Z" fill="#7DD4EE"/>
</svg>
